<svg width="25" height="25" viewBox="0 0 25 25" fill="none" xmlns="http://www.w3.org/2000/svg">
<g id="Collaborations Idea" clip-path="url(#clip0_2_3762)">
<path id="icon" fill-rule="evenodd" clip-rule="evenodd" d="M17.6549 0C18.2712 0 18.7709 0.499682 18.7709 1.11607V2.58141C18.7709 3.1978 18.2712 3.69748 17.6549 3.69748C17.0385 3.69748 16.5388 3.1978 16.5388 2.58141V1.11607C16.5388 0.499682 17.0385 0 17.6549 0ZM7.22805 15.6038C9.62314 15.6038 11.5648 13.6622 11.5648 11.2671C11.5648 8.872 9.62314 6.93038 7.22805 6.93038C4.83295 6.93038 2.89132 8.872 2.89132 11.2671C2.89132 13.6622 4.83295 15.6038 7.22805 15.6038ZM0 24.2771C0 20.2854 3.23604 17.0494 7.22787 17.0494C11.2197 17.0494 14.4557 20.2854 14.4557 24.2771C14.4557 24.6764 14.1321 25 13.7329 25H0.722787C0.323604 25 0 24.6764 0 24.2771ZM24.4937 4.45132C24.9982 4.09718 25.1202 3.40111 24.7661 2.89661C24.4118 2.39212 23.7157 2.27025 23.2112 2.62439L22.012 3.4663C21.5075 3.82046 21.3855 4.51654 21.7396 5.02102C22.0939 5.52552 22.79 5.64739 23.2945 5.29325L24.4937 4.45132ZM10.5402 2.89661C10.1861 3.40111 10.308 4.09718 10.8124 4.45132L12.0118 5.29325C12.5163 5.64739 13.2123 5.52552 13.5665 5.02102C13.9206 4.51654 13.7988 3.82046 13.2943 3.4663L12.0949 2.62439C11.5904 2.27025 10.8944 2.39212 10.5402 2.89661ZM17.5723 5.07173C19.7745 5.026 21.6386 6.85871 21.6304 9.06129C21.6123 10.5235 20.7359 11.9195 19.4268 12.5711V14.5589C19.4239 14.6744 19.3759 14.7842 19.293 14.8648C19.2104 14.9454 19.0993 14.9905 18.9838 14.9905H16.3259C16.2104 14.9905 16.0994 14.9454 16.0166 14.8648C15.9338 14.7842 15.8859 14.6744 15.8829 14.5589V12.6052C14.6138 11.9733 13.7476 10.6426 13.6834 9.22636C13.5837 7.02602 15.3702 5.11746 17.5723 5.07173Z" fill="black"/>
</g>
<defs>
<clipPath id="clip0_2_3762">
<rect width="25" height="25" fill="white"/>
</clipPath>
</defs>
</svg>
