<svg width="30" height="30" viewBox="0 0 30 30" fill="none" xmlns="http://www.w3.org/2000/svg">
<g id="Dashboard Circle" clip-path="url(#clip0_2_1281)">
<path id="icon" fill-rule="evenodd" clip-rule="evenodd" d="M12.8571 6.42857C12.8571 9.97896 9.97896 12.8571 6.42857 12.8571C2.87818 12.8571 0 9.97896 0 6.42857C0 2.87818 2.87818 0 6.42857 0C9.97896 0 12.8571 2.87818 12.8571 6.42857ZM30 6.42857C30 9.97896 27.1219 12.8571 23.5714 12.8571C20.021 12.8571 17.1429 9.97896 17.1429 6.42857C17.1429 2.87818 20.021 0 23.5714 0C27.1219 0 30 2.87818 30 6.42857ZM6.42857 30C9.97896 30 12.8571 27.1219 12.8571 23.5714C12.8571 20.021 9.97896 17.1429 6.42857 17.1429C2.87818 17.1429 0 20.021 0 23.5714C0 27.1219 2.87818 30 6.42857 30ZM30 23.5714C30 27.1219 27.1219 30 23.5714 30C20.021 30 17.1429 27.1219 17.1429 23.5714C17.1429 20.021 20.021 17.1429 23.5714 17.1429C27.1219 17.1429 30 20.021 30 23.5714Z" fill="black"/>
</g>
<defs>
<clipPath id="clip0_2_1281">
<rect width="30" height="30" fill="white"/>
</clipPath>
</defs>
</svg>
