<svg width="28" height="28" viewBox="0 0 28 28" fill="none" xmlns="http://www.w3.org/2000/svg">
<g id="Icons-drawer">
<mask id="mask0_2_1195" style="mask-type:alpha" maskUnits="userSpaceOnUse" x="0" y="0" width="28" height="28">
<rect id="Bounding box" width="28" height="28" fill="#1C1B1F"/>
</mask>
<g mask="url(#mask0_2_1195)">
<path id="settings" d="M11.3 24L10.9 20.8C10.6833 20.7167 10.4793 20.6167 10.288 20.5C10.096 20.3833 9.90833 20.2583 9.725 20.125L6.75 21.375L4 16.625L6.575 14.675C6.55833 14.5583 6.55 14.4457 6.55 14.337V13.662C6.55 13.554 6.55833 13.4417 6.575 13.325L4 11.375L6.75 6.625L9.725 7.875C9.90833 7.74167 10.1 7.61667 10.3 7.5C10.5 7.38333 10.7 7.28333 10.9 7.2L11.3 4H16.8L17.2 7.2C17.4167 7.28333 17.621 7.38333 17.813 7.5C18.0043 7.61667 18.1917 7.74167 18.375 7.875L21.35 6.625L24.1 11.375L21.525 13.325C21.5417 13.4417 21.55 13.554 21.55 13.662V14.337C21.55 14.4457 21.5333 14.5583 21.5 14.675L24.075 16.625L21.325 21.375L18.375 20.125C18.1917 20.2583 18 20.3833 17.8 20.5C17.6 20.6167 17.4 20.7167 17.2 20.8L16.8 24H11.3ZM14.1 17.5C15.0667 17.5 15.8917 17.1583 16.575 16.475C17.2583 15.7917 17.6 14.9667 17.6 14C17.6 13.0333 17.2583 12.2083 16.575 11.525C15.8917 10.8417 15.0667 10.5 14.1 10.5C13.1167 10.5 12.2873 10.8417 11.612 11.525C10.9373 12.2083 10.6 13.0333 10.6 14C10.6 14.9667 10.9373 15.7917 11.612 16.475C12.2873 17.1583 13.1167 17.5 14.1 17.5ZM14.1 15.5C13.6833 15.5 13.3293 15.354 13.038 15.062C12.746 14.7707 12.6 14.4167 12.6 14C12.6 13.5833 12.746 13.2293 13.038 12.938C13.3293 12.646 13.6833 12.5 14.1 12.5C14.5167 12.5 14.871 12.646 15.163 12.938C15.4543 13.2293 15.6 13.5833 15.6 14C15.6 14.4167 15.4543 14.7707 15.163 15.062C14.871 15.354 14.5167 15.5 14.1 15.5ZM13.05 22H15.025L15.375 19.35C15.8917 19.2167 16.371 19.0207 16.813 18.762C17.2543 18.504 17.6583 18.1917 18.025 17.825L20.5 18.85L21.475 17.15L19.325 15.525C19.4083 15.2917 19.4667 15.0457 19.5 14.787C19.5333 14.529 19.55 14.2667 19.55 14C19.55 13.7333 19.5333 13.4707 19.5 13.212C19.4667 12.954 19.4083 12.7083 19.325 12.475L21.475 10.85L20.5 9.15L18.025 10.2C17.6583 9.81667 17.2543 9.49567 16.813 9.237C16.371 8.979 15.8917 8.78333 15.375 8.65L15.05 6H13.075L12.725 8.65C12.2083 8.78333 11.7293 8.979 11.288 9.237C10.846 9.49567 10.4417 9.80833 10.075 10.175L7.6 9.15L6.625 10.85L8.775 12.45C8.69167 12.7 8.63333 12.95 8.6 13.2C8.56667 13.45 8.55 13.7167 8.55 14C8.55 14.2667 8.56667 14.525 8.6 14.775C8.63333 15.025 8.69167 15.275 8.775 15.525L6.625 17.15L7.6 18.85L10.075 17.8C10.4417 18.1833 10.846 18.504 11.288 18.762C11.7293 19.0207 12.2083 19.2167 12.725 19.35L13.05 22Z" fill="#1C1B1F" fill-opacity="0.7"/>
</g>
</g>
</svg>
