<svg width="28" height="28" viewBox="0 0 28 28" fill="none" xmlns="http://www.w3.org/2000/svg">
<g id="Icons-drawer">
<mask id="mask0_2_1193" style="mask-type:alpha" maskUnits="userSpaceOnUse" x="0" y="0" width="28" height="28">
<rect id="Bounding box" width="28" height="28" fill="#1C1B1F" fill-opacity="0.7"/>
</mask>
<g mask="url(#mask0_2_1193)">
<path id="notifications" d="M6 21V19H8V12C8 10.6167 8.41667 9.38733 9.25 8.312C10.0833 7.23733 11.1667 6.53333 12.5 6.2V5.5C12.5 5.08333 12.646 4.72933 12.938 4.438C13.2293 4.146 13.5833 4 14 4C14.4167 4 14.7707 4.146 15.062 4.438C15.354 4.72933 15.5 5.08333 15.5 5.5V6.2C16.8333 6.53333 17.9167 7.23733 18.75 8.312C19.5833 9.38733 20 10.6167 20 12V19H22V21H6ZM14 24C13.45 24 12.9793 23.8043 12.588 23.413C12.196 23.021 12 22.55 12 22H16C16 22.55 15.8043 23.021 15.413 23.413C15.021 23.8043 14.55 24 14 24ZM10 19H18V12C18 10.9 17.6083 9.95833 16.825 9.175C16.0417 8.39167 15.1 8 14 8C12.9 8 11.9583 8.39167 11.175 9.175C10.3917 9.95833 10 10.9 10 12V19Z" fill="#333333"/>
</g>
</g>
</svg>
