<svg width="24" height="24" viewBox="0 0 24 24" fill="none" xmlns="http://www.w3.org/2000/svg">
<g id="Mail">
<path id="tone" d="M20.7071 5.29297L13.4142 12.5858C12.6332 13.3669 11.3668 13.3669 10.5858 12.5858L3.29289 5.29297C3.11193 5.47393 3 5.72393 3 6.00008V18.0001C3 18.5524 3.44772 19.0001 4 19.0001H20C20.5523 19.0001 21 18.5524 21 18.0001V6.00008C21 5.72393 20.8881 5.47393 20.7071 5.29297Z" fill="black" fill-opacity="0.15"/>
<path id="shape" d="M3.29289 5.29289C3.47386 5.11193 3.72386 5 4 5H20C20.2761 5 20.5261 5.11193 20.7071 5.29289M3.29289 5.29289C3.11193 5.47386 3 5.72386 3 6V18C3 18.5523 3.44772 19 4 19H20C20.5523 19 21 18.5523 21 18V6C21 5.72386 20.8881 5.47386 20.7071 5.29289M3.29289 5.29289L10.5858 12.5857C11.3668 13.3668 12.6332 13.3668 13.4142 12.5857L20.7071 5.29289" stroke="#616063" stroke-width="2" stroke-linecap="round" stroke-linejoin="round"/>
</g>
</svg>
