<svg width="28" height="28" viewBox="0 0 28 28" fill="none" xmlns="http://www.w3.org/2000/svg">
<g id="Medal Star">
<path id="icon" d="M14 18.6668C14.42 18.6668 14.8283 18.6318 15.225 18.5618C17.5467 18.2235 19.5417 16.9052 20.8017 15.0385C21.665 13.7435 22.1667 12.1918 22.1667 10.5002C22.1667 5.98516 18.515 2.3335 14 2.3335C9.48501 2.3335 5.83334 5.98516 5.83334 10.5002C5.83334 12.1918 6.33501 13.7435 7.19834 15.0385C8.45834 16.9052 10.4533 18.2235 12.775 18.5618C13.1717 18.6318 13.58 18.6668 14 18.6668ZM14 18.6668L19.565 25.0602C20.1833 25.7952 21.3733 25.5152 21.595 24.5818L22.0033 22.8668C22.0967 22.4352 22.435 22.1085 22.8667 22.0035L24.7917 21.5485C25.6783 21.3385 25.9933 20.2301 25.3517 19.6001L20.8017 15.0502C19.5417 16.9168 17.5467 18.2352 15.225 18.5735C14.8283 18.6435 14.42 18.6785 14 18.6785C13.58 18.6785 13.1717 18.6435 12.775 18.5735C10.4533 18.2352 8.45834 16.9168 7.19834 15.0502L2.64834 19.6001C2.00668 20.2418 2.32168 21.3502 3.20834 21.5602L5.13334 22.0152C5.55334 22.1085 5.89168 22.4468 5.99668 22.8785L6.40501 24.5935C6.62668 25.5268 7.81668 25.8068 8.43501 25.0718L14 18.6668ZM14.6767 6.97683L15.365 8.35349C15.4583 8.54015 15.7033 8.72683 15.925 8.76183L17.1733 8.97182C17.9667 9.10015 18.1533 9.68349 17.5817 10.2552L16.6133 11.2235C16.45 11.3868 16.3567 11.7018 16.415 11.9352L16.695 13.1368C16.9167 14.0818 16.415 14.4551 15.575 13.9535L14.4083 13.2651C14.1983 13.1368 13.8483 13.1368 13.6383 13.2651L12.4717 13.9535C11.6317 14.4435 11.13 14.0818 11.3517 13.1368L11.6317 11.9352C11.6783 11.7135 11.5967 11.3868 11.4333 11.2235L10.465 10.2552C9.89334 9.68349 10.08 9.11182 10.8733 8.97182L12.1217 8.76183C12.3317 8.72683 12.5767 8.54015 12.67 8.35349L13.3583 6.97683C13.6967 6.23016 14.3033 6.23016 14.6767 6.97683Z" stroke="#023047" stroke-width="1.5" stroke-linecap="round" stroke-linejoin="round"/>
</g>
</svg>
